<?xml version="1.0" encoding="UTF-8"?>
<!DOCTYPE svg PUBLIC "-//W3C//DTD SVG 1.1//EN" "http://www.w3.org/Graphics/SVG/1.1/DTD/svg11.dtd">
<svg xmlns="http://www.w3.org/2000/svg" version="1.1" width="143px" height="143px" style="shape-rendering:geometricPrecision; text-rendering:geometricPrecision; image-rendering:optimizeQuality; fill-rule:evenodd; clip-rule:evenodd" xmlns:xlink="http://www.w3.org/1999/xlink">
<g><path style="opacity:0.651" fill="#e3a2a2" d="M 85.5,4.5 C 82.5,4.5 79.5,4.5 76.5,4.5C 76.369,3.76109 76.5357,3.09442 77,2.5C 79.6667,3.83333 82.3333,3.83333 85,2.5C 85.4643,3.09442 85.631,3.76109 85.5,4.5 Z"/></g>
<g><path style="opacity:0.004" fill="#fefefd" d="M 88.5,3.5 C 89.8333,4.16667 89.8333,4.16667 88.5,3.5 Z"/></g>
<g><path style="opacity:0.008" fill="#fefdfc" d="M 90.5,4.5 C 91.8333,5.16667 91.8333,5.16667 90.5,4.5 Z"/></g>
<g><path style="opacity:0.999" fill="#d1494a" d="M 74.5,4.5 C 75.1667,4.5 75.8333,4.5 76.5,4.5C 79.5,4.5 82.5,4.5 85.5,4.5C 86.5,4.5 87.5,4.5 88.5,4.5C 88.8417,5.33825 89.5084,5.67158 90.5,5.5C 90.8417,6.33825 91.5084,6.67158 92.5,6.5C 92.5,7.16667 92.8333,7.5 93.5,7.5C 93.5,8.16667 93.8333,8.5 94.5,8.5C 94.5,9.16667 94.8333,9.5 95.5,9.5C 95.5,10.1667 95.8333,10.5 96.5,10.5C 96.5,11.1667 96.8333,11.5 97.5,11.5C 97.5,12.1667 97.8333,12.5 98.5,12.5C 98.3284,13.4916 98.6618,14.1583 99.5,14.5C 99.2627,15.791 99.596,16.791 100.5,17.5C 100.5,20.1667 100.5,22.8333 100.5,25.5C 99.6618,25.8417 99.3284,26.5084 99.5,27.5C 99.5,27.8333 99.5,28.1667 99.5,28.5C 98.6618,28.8417 98.3284,29.5084 98.5,30.5C 93.5097,37.8269 86.5097,41.1602 77.5,40.5C 75.0576,39.1006 72.7243,37.434 70.5,35.5C 69.5233,37.4109 68.8567,39.4109 68.5,41.5C 68.5,41.8333 68.5,42.1667 68.5,42.5C 67.0937,42.9731 66.427,43.9731 66.5,45.5C 64.4942,48.3548 61.8275,50.5215 58.5,52C 59.5266,52.5133 60.5266,53.0133 61.5,53.5C 61.8333,53.5 62.1667,53.5 62.5,53.5C 62.5,54.1667 62.8333,54.5 63.5,54.5C 63.8333,54.5 64.1667,54.5 64.5,54.5C 64.8333,55.5 65.5,56.1667 66.5,56.5C 66.8333,56.5 67.1667,56.5 67.5,56.5C 67.5,57.1667 67.8333,57.5 68.5,57.5C 69.9387,59.3603 71.6053,61.027 73.5,62.5C 73.5,62.8333 73.5,63.1667 73.5,63.5C 73.6596,65.153 74.3263,66.4863 75.5,67.5C 77.3057,72.5469 78.3057,77.8802 78.5,83.5C 79.8333,83.1667 81.1667,82.8333 82.5,82.5C 83.4916,82.6716 84.1583,82.3382 84.5,81.5C 87.0359,80.963 89.0359,79.6297 90.5,77.5C 95.8491,73.4769 99.1825,68.1436 100.5,61.5C 101.382,58.3165 102.715,55.3165 104.5,52.5C 104.735,51.9033 105.235,51.5699 106,51.5C 107.303,51.9783 108.469,52.645 109.5,53.5C 110.833,55.1667 110.833,56.8333 109.5,58.5C 107.475,63.5558 105.141,68.5558 102.5,73.5C 99.0648,77.4379 95.3981,81.2712 91.5,85C 86.6826,87.422 82.0159,89.922 77.5,92.5C 74.4788,93.0049 71.4788,93.6716 68.5,94.5C 65.0432,92.9373 61.7099,91.104 58.5,89C 54.7446,88.2446 51.0779,88.4113 47.5,89.5C 46.8333,89.5 46.1667,89.5 45.5,89.5C 44.3054,89.1344 43.6387,88.301 43.5,87C 44.3146,85.3566 45.3146,83.8566 46.5,82.5C 50.2684,81.2134 53.9351,81.2134 57.5,82.5C 57.6107,83.1174 57.944,83.6174 58.5,84C 60.4727,84.4955 62.4727,84.6621 64.5,84.5C 64.8333,84.5 65.1667,84.5 65.5,84.5C 65.5,85.1667 65.8333,85.5 66.5,85.5C 67.3143,87.2726 68.6476,87.7726 70.5,87C 71.7331,81.5219 71.5664,76.0219 70,70.5C 69.3028,68.4156 68.1361,66.7489 66.5,65.5C 63.7468,61.1204 59.7468,58.7871 54.5,58.5C 49.7746,56.5993 44.7746,56.0993 39.5,57C 43.0043,57.3033 46.3376,58.1366 49.5,59.5C 49.8333,59.5 50.1667,59.5 50.5,59.5C 50.5,60.1667 50.8333,60.5 51.5,60.5C 51.5,61.1667 51.8333,61.5 52.5,61.5C 52.5,61.8333 52.5,62.1667 52.5,62.5C 52.5,63.1667 52.8333,63.5 53.5,63.5C 53.5,63.8333 53.5,64.1667 53.5,64.5C 53.1199,73.7127 48.2866,78.3794 39,78.5C 28.3462,79.4154 20.3462,75.4154 15,66.5C 13.2969,72.2614 13.1302,77.9281 14.5,83.5C 15.3255,87.1359 15.9922,90.8026 16.5,94.5C 16.4021,96.5529 17.0687,98.2196 18.5,99.5C 18.5,99.8333 18.5,100.167 18.5,100.5C 18.5,101.167 18.8333,101.5 19.5,101.5C 20.1098,102.391 20.4431,103.391 20.5,104.5C 20.9321,105.71 21.5987,106.71 22.5,107.5C 22.8333,108.5 23.5,109.167 24.5,109.5C 24.8333,110.167 25.1667,110.833 25.5,111.5C 27.8333,114.5 30.5,117.167 33.5,119.5C 33.8333,119.5 34.1667,119.5 34.5,119.5C 34.5,120.167 34.8333,120.5 35.5,120.5C 36.1667,121.833 37.1667,122.833 38.5,123.5C 38.8333,123.5 39.1667,123.5 39.5,123.5C 39.5,124.167 39.8333,124.5 40.5,124.5C 41.2905,125.401 42.2905,126.068 43.5,126.5C 44.1667,126.5 44.5,126.167 44.5,125.5C 46.0651,126.238 47.7318,127.238 49.5,128.5C 50.1667,129.833 50.8333,129.833 51.5,128.5C 56.3637,131.388 61.697,133.054 67.5,133.5C 70.9758,134.643 74.6425,134.81 78.5,134C 81.8511,133.943 84.8511,133.109 87.5,131.5C 87.8333,131.5 88.1667,131.5 88.5,131.5C 89.4916,131.672 90.1583,131.338 90.5,130.5C 90.8333,130.5 91.1667,130.5 91.5,130.5C 93.3797,130.771 94.713,130.104 95.5,128.5C 96.1667,127.833 96.8333,127.167 97.5,126.5C 97.5,127.167 97.8333,127.5 98.5,127.5C 118.478,116.583 129.144,99.5834 130.5,76.5C 130.085,67.8431 128.252,59.5097 125,51.5C 124.051,49.9069 122.885,48.5736 121.5,47.5C 120.567,44.6298 118.9,42.2964 116.5,40.5C 112.789,35.6229 108.289,31.6229 103,28.5C 102.387,26.5048 102.887,24.8381 104.5,23.5C 106.216,23.6287 107.883,23.962 109.5,24.5C 109.5,25.1667 109.833,25.5 110.5,25.5C 110.833,26.5 111.5,27.1667 112.5,27.5C 112.833,27.5 113.167,27.5 113.5,27.5C 113.5,28.1667 113.833,28.5 114.5,28.5C 114.5,29.1667 114.833,29.5 115.5,29.5C 115.5,30.1667 115.833,30.5 116.5,30.5C 116.5,31.1667 116.833,31.5 117.5,31.5C 117.5,32.1667 117.833,32.5 118.5,32.5C 118.5,33.1667 118.833,33.5 119.5,33.5C 120.512,34.8717 121.512,36.205 122.5,37.5C 123.512,38.8717 124.512,40.205 125.5,41.5C 125.5,42.1667 125.833,42.5 126.5,42.5C 126.5,42.8333 126.5,43.1667 126.5,43.5C 126.833,44.5 127.5,45.1667 128.5,45.5C 128.5,46.1667 128.833,46.5 129.5,46.5C 129.328,47.4916 129.662,48.1583 130.5,48.5C 130.66,50.153 131.326,51.4863 132.5,52.5C 132.875,54.6976 133.542,56.6976 134.5,58.5C 134.5,59.5 134.5,60.5 134.5,61.5C 134.263,62.791 134.596,63.791 135.5,64.5C 135.577,65.7498 136.244,66.5831 137.5,67C 136.524,73.0758 136.19,79.2424 136.5,85.5C 135.662,85.8417 135.328,86.5084 135.5,87.5C 135.5,88.5 135.5,89.5 135.5,90.5C 134.662,90.8417 134.328,91.5084 134.5,92.5C 134.5,92.8333 134.5,93.1667 134.5,93.5C 133.662,93.8417 133.328,94.5084 133.5,95.5C 133.5,96.1667 133.5,96.8333 133.5,97.5C 132.662,97.8417 132.328,98.5084 132.5,99.5C 131.662,99.8417 131.328,100.508 131.5,101.5C 131.672,102.492 131.338,103.158 130.5,103.5C 129.326,104.514 128.66,105.847 128.5,107.5C 108.228,137.091 80.8943,146.258 46.5,135C 11.9605,117.217 0.293795,89.717 11.5,52.5C 13.0075,50.8185 14.0075,48.8185 14.5,46.5C 17.9104,41.3604 21.5771,36.3604 25.5,31.5C 25.8333,31.5 26.1667,31.5 26.5,31.5C 27.609,31.5569 28.609,31.8902 29.5,32.5C 29.5,32.8333 29.5,33.1667 29.5,33.5C 29.5,34.5 29.5,35.5 29.5,36.5C 24.4051,42.0774 20.4051,48.4107 17.5,55.5C 17.5427,56.4164 17.8761,57.0831 18.5,57.5C 19.404,58.209 19.7373,59.209 19.5,60.5C 19.4021,62.5529 20.0687,64.2196 21.5,65.5C 21.8333,65.5 22.1667,65.5 22.5,65.5C 22.5,66.1667 22.8333,66.5 23.5,66.5C 23.5,67.1667 23.8333,67.5 24.5,67.5C 24.5,67.8333 24.5,68.1667 24.5,68.5C 26.1016,70.0739 28.1016,70.7406 30.5,70.5C 30.8333,70.5 31.1667,70.5 31.5,70.5C 35.6463,71.647 39.9796,71.8136 44.5,71C 46.3249,69.5341 46.8249,67.7008 46,65.5C 41.9627,64.2069 37.7961,63.3736 33.5,63C 31.1671,61.7574 30.5004,60.0907 31.5,58C 25.1737,57.5322 22.507,54.3656 23.5,48.5C 25.099,48.2322 26.4324,48.5655 27.5,49.5C 27.8417,50.3382 28.5084,50.6716 29.5,50.5C 31.861,50.6741 34.1944,51.0074 36.5,51.5C 38.5273,51.6621 40.5273,51.4955 42.5,51C 35.3395,46.5132 32.0061,40.0132 32.5,31.5C 35.4746,25.192 40.1413,20.5253 46.5,17.5C 50.1667,16.1667 53.8333,16.1667 57.5,17.5C 57.8417,18.3382 58.5084,18.6716 59.5,18.5C 60.3864,19.7759 61.3864,19.7759 62.5,18.5C 64.7698,12.2387 68.7698,7.57199 74.5,4.5 Z M 84.5,33.5 C 82.5,33.5 80.5,33.5 78.5,33.5C 77.9941,31.8946 77.3274,31.5613 76.5,32.5C 75.8333,31.8333 75.1667,31.1667 74.5,30.5C 74.1667,29.5 73.5,28.8333 72.5,28.5C 72.1227,26.1759 71.1227,25.5092 69.5,26.5C 69.5,25.5 69.5,24.5 69.5,23.5C 70.625,22.6522 70.625,21.6522 69.5,20.5C 69.5,19.8333 69.5,19.1667 69.5,18.5C 71.9343,16.2509 74.601,14.0843 77.5,12C 88.0123,10.4947 92.8456,14.9947 92,25.5C 89.9718,28.6922 87.4718,31.3589 84.5,33.5 Z M 58.5,44.5 C 57.8333,44.5 57.5,44.8333 57.5,45.5C 53.9009,46.3439 50.2343,46.6773 46.5,46.5C 46.6107,45.8826 46.944,45.3826 47.5,45C 45.6217,43.4571 44.1217,41.6238 43,39.5C 42.3292,40.2524 41.4959,40.5858 40.5,40.5C 40.5,37.5 40.5,34.5 40.5,31.5C 41.552,31.6495 42.552,31.4828 43.5,31C 46.5456,25.9839 50.8789,24.4839 56.5,26.5C 57.5968,28.229 58.7635,29.8956 60,31.5C 60.3333,31.1667 60.6667,30.8333 61,30.5C 62.9109,35.3436 61.7442,39.5103 57.5,43C 58.056,43.3826 58.3893,43.8826 58.5,44.5 Z M 99.5,27.5 C 100.376,27.3691 101.043,27.7025 101.5,28.5C 100.743,29.7733 100.077,29.7733 99.5,28.5C 99.5,28.1667 99.5,27.8333 99.5,27.5 Z M 98.5,30.5 C 100.39,30.2965 101.89,30.9632 103,32.5C 103.333,32.1667 103.667,31.8333 104,31.5C 104.442,33.6785 105.442,34.3452 107,33.5C 108.489,34.4239 108.656,35.4239 107.5,36.5C 106.252,35.9598 105.085,35.2931 104,34.5C 103.601,34.7284 103.435,35.0618 103.5,35.5C 103.167,35.5 102.833,35.5 102.5,35.5C 101.391,34.71 100.058,34.21 98.5,34C 99.6843,32.8545 99.6843,31.6879 98.5,30.5 Z M 30.5,37.5 C 32.0395,39.8383 32.7062,42.5049 32.5,45.5C 33.552,45.3505 34.552,45.5172 35.5,46C 35.1667,46.3333 34.8333,46.6667 34.5,47C 35.5822,48.3297 36.2488,49.8297 36.5,51.5C 34.1944,51.0074 31.861,50.6741 29.5,50.5C 29.6332,47.075 28.9665,46.7417 27.5,49.5C 26.4324,48.5655 25.099,48.2322 23.5,48.5C 23.3505,47.448 23.5172,46.448 24,45.5C 25.9359,44.5139 27.9359,42.8472 30,40.5C 30.4828,39.552 30.6495,38.552 30.5,37.5 Z M 110.5,52.5 C 109.833,52.5 109.5,52.8333 109.5,53.5C 108.469,52.645 107.303,51.9783 106,51.5C 105.235,51.5699 104.735,51.9033 104.5,52.5C 103.074,50.1041 101.74,50.4374 100.5,53.5C 100.945,56.0534 100.945,58.72 100.5,61.5C 97.2514,66.7572 93.5847,71.7572 89.5,76.5C 87.7697,77.0256 86.4363,78.0256 85.5,79.5C 84.6618,79.8417 84.3284,80.5084 84.5,81.5C 83.0755,79.9689 82.4088,80.3023 82.5,82.5C 81.1667,82.8333 79.8333,83.1667 78.5,83.5C 78.3057,77.8802 77.3057,72.5469 75.5,67.5C 75.5674,66.0413 75.2341,64.7079 74.5,63.5C 75.8333,63.1667 75.8333,62.8333 74.5,62.5C 73.0256,56.9825 69.6923,54.3158 64.5,54.5C 64.1667,54.5 63.8333,54.5 63.5,54.5C 64.414,51.6444 66.0807,49.1444 68.5,47C 67.5842,46.7216 66.9175,46.2216 66.5,45.5C 68.9099,45.9209 70.7432,47.2542 72,49.5C 73.0113,48.6634 74.1779,48.33 75.5,48.5C 75.4125,51.5983 75.9125,51.9316 77,49.5C 83.2043,51.7353 89.2043,51.0687 95,47.5C 95.3333,47.8333 95.6667,48.1667 96,48.5C 97.5737,47.0158 98.907,45.3492 100,43.5C 101.897,45.0163 104.064,45.683 106.5,45.5C 106.351,46.552 106.517,47.552 107,48.5C 107.667,49.8333 108.333,49.8333 109,48.5C 109.41,49.9007 109.91,51.234 110.5,52.5 Z M 120.5,49.5 C 122.933,50.5477 122.933,51.2144 120.5,51.5C 120.5,50.8333 120.5,50.1667 120.5,49.5 Z M 31.5,70.5 C 31.1667,70.5 30.8333,70.5 30.5,70.5C 28.231,69.5633 26.231,68.23 24.5,66.5C 24.5,65.1667 23.8333,64.5 22.5,64.5C 21.4884,63.1283 20.4884,61.795 19.5,60.5C 19.7373,59.209 19.404,58.209 18.5,57.5C 19.9754,56.1747 20.8087,54.1747 21,51.5C 20.9556,57.287 23.789,59.6203 29.5,58.5C 28.5792,64.0042 30.5792,66.0042 35.5,64.5C 38.7986,64.738 41.7986,65.738 44.5,67.5C 44.0233,68.4776 43.3567,69.3109 42.5,70C 38.5357,70.3594 34.869,70.5261 31.5,70.5 Z M 110.5,52.5 C 111.87,52.8565 112.87,53.6898 113.5,55C 115.781,62.7256 114.948,70.2256 111,77.5C 108.537,80.6182 106.037,83.6182 103.5,86.5C 99.456,88.5439 96.456,91.5439 94.5,95.5C 94.1667,95.5 93.8333,95.5 93.5,95.5C 92.791,94.596 91.791,94.2627 90.5,94.5C 90.5,95.5 90.5,96.5 90.5,97.5C 90.1667,97.5 89.8333,97.5 89.5,97.5C 87.1625,95.9893 86.4958,96.3227 87.5,98.5C 83.3411,99.6641 79.3411,100.997 75.5,102.5C 73.2646,102.205 71.2646,102.539 69.5,103.5C 67.1016,103.259 65.1016,103.926 63.5,105.5C 59.2889,105.324 55.2889,105.324 51.5,105.5C 49.0392,104.469 46.3725,103.802 43.5,103.5C 42.7095,102.599 41.7095,101.932 40.5,101.5C 40.1583,100.662 39.4916,100.328 38.5,100.5C 38.1667,99.8333 37.8333,99.1667 37.5,98.5C 44.0898,98.189 50.5898,98.5223 57,99.5C 58.8348,97.4973 59.8348,95.4973 60,93.5C 65.1248,95.7724 70.6248,95.9391 76.5,94C 77.056,93.6174 77.3893,93.1174 77.5,92.5C 80.5219,92.196 83.5219,91.696 86.5,91C 85.6598,89.3335 86.1598,89.1669 88,90.5C 93.9129,87.1395 99.7462,81.4729 105.5,73.5C 104.571,71.6783 105.238,70.3449 107.5,69.5C 106.429,67.6745 107.096,66.5079 109.5,66C 108.864,63.6062 108.864,61.1062 109.5,58.5C 110.833,56.8333 110.833,55.1667 109.5,53.5C 110.167,53.5 110.5,53.1667 110.5,52.5 Z M 122.5,53.5 C 123.75,53.5774 124.583,54.244 125,55.5C 130.021,70.9606 129.521,85.7939 123.5,100C 121.978,101.522 120.478,103.022 119,104.5C 118.235,104.43 117.735,104.097 117.5,103.5C 117.5,102.5 117.5,101.5 117.5,100.5C 118.757,99.3774 118.424,98.7107 116.5,98.5C 116.167,97.1667 115.833,97.1667 115.5,98.5C 114.833,98.5 114.167,98.5 113.5,98.5C 112.85,98.1961 112.183,97.8627 111.5,97.5C 110.345,100.446 110.179,103.446 111,106.5C 113.027,106.986 115.193,106.986 117.5,106.5C 117.617,108.484 116.95,110.15 115.5,111.5C 111.101,116.274 106.268,120.608 101,124.5C 99.4207,123.828 98.254,124.495 97.5,126.5C 96.8333,127.167 96.1667,127.833 95.5,128.5C 94.284,128.264 93.1174,128.264 92,128.5C 91.5357,129.094 91.369,129.761 91.5,130.5C 91.1667,130.5 90.8333,130.5 90.5,130.5C 89.0755,128.969 88.4088,129.302 88.5,131.5C 88.1667,131.5 87.8333,131.5 87.5,131.5C 86.5041,131.586 85.6708,131.252 85,130.5C 83.9914,131.658 82.6581,132.325 81,132.5C 76.5302,133.264 72.0302,133.597 67.5,133.5C 61.697,133.054 56.3637,131.388 51.5,128.5C 50.8333,127.167 50.1667,127.167 49.5,128.5C 47.7318,127.238 46.0651,126.238 44.5,125.5C 43.7095,124.599 42.7095,123.932 41.5,123.5C 41.1583,122.662 40.4916,122.328 39.5,122.5C 38.7377,120.738 37.4044,119.738 35.5,119.5C 35.631,118.761 35.4643,118.094 35,117.5C 31.958,115.279 29.1246,112.946 26.5,110.5C 26.5,109.833 26.1667,109.5 25.5,109.5C 25.5,106.167 23.8333,104.5 20.5,104.5C 20.4431,103.391 20.1098,102.391 19.5,101.5C 21.9327,101.214 21.9327,100.548 19.5,99.5C 18.8897,97.5659 17.8897,95.8993 16.5,94.5C 15.9922,90.8026 15.3255,87.1359 14.5,83.5C 14.4508,79.4654 14.6175,75.1321 15,70.5C 16.2899,72.792 17.9565,74.792 20,76.5C 20.3333,76.1667 20.6667,75.8333 21,75.5C 21.3333,76.5 21.6667,77.5 22,78.5C 22.7247,77.9415 23.5581,77.6082 24.5,77.5C 32.2581,79.1977 39.9248,79.8644 47.5,79.5C 53.7233,76.0694 55.7233,71.0694 53.5,64.5C 53.5,64.1667 53.5,63.8333 53.5,63.5C 54.8333,62.8333 54.8333,62.1667 53.5,61.5C 53.5858,60.5041 53.2524,59.6708 52.5,59C 53.0944,58.5357 53.7611,58.369 54.5,58.5C 56.7572,59.4013 58.2572,61.068 59,63.5C 59.3333,62.8333 59.6667,62.1667 60,61.5C 61.5466,63.887 63.7133,65.2204 66.5,65.5C 64.9766,67.5857 65.31,69.2524 67.5,70.5C 69.4075,75.3113 69.9075,80.3113 69,85.5C 68.3292,84.7476 67.4959,84.4142 66.5,84.5C 66.1667,81.8333 65.8333,81.8333 65.5,84.5C 65.1667,84.5 64.8333,84.5 64.5,84.5C 62.5615,82.8372 60.2282,82.1706 57.5,82.5C 53.9351,81.2134 50.2684,81.2134 46.5,82.5C 45.5272,81.2086 44.5272,81.2086 43.5,82.5C 42.8333,84.8333 42.1667,87.1667 41.5,89.5C 40.5712,88.4502 39.9046,88.4502 39.5,89.5C 39.1667,89.5 38.8333,89.5 38.5,89.5C 34.9472,88.0448 31.4472,88.3781 28,90.5C 26.53,94.7408 26.03,98.9075 26.5,103C 27.0659,103.995 27.7326,104.828 28.5,105.5C 29.9558,108.535 32.1225,109.869 35,109.5C 46.4029,115.052 58.0695,115.719 70,111.5C 69.6586,114.311 69.4919,116.977 69.5,119.5C 69.2893,117.576 68.6226,117.243 67.5,118.5C 64.459,117.203 61.7923,117.203 59.5,118.5C 57.7988,118.034 56.2988,118.034 55,118.5C 54.7638,120.764 54.2638,122.931 53.5,125C 54.3333,125.833 55.1667,126.667 56,127.5C 60.8823,127.315 65.5489,126.649 70,125.5C 71.5322,129.584 74.3655,130.584 78.5,128.5C 78.5,122.167 78.5,115.833 78.5,109.5C 83.9535,110.059 88.6202,108.725 92.5,105.5C 93.7202,104.289 94.8869,104.289 96,105.5C 104.146,100.346 111.312,94.1793 117.5,87C 116.584,86.7216 115.918,86.2216 115.5,85.5C 117.103,85.6882 118.437,85.1882 119.5,84C 120.001,82.6285 120.001,81.1285 119.5,79.5C 119.5,79.1667 119.5,78.8333 119.5,78.5C 121.698,78.5912 122.031,77.9245 120.5,76.5C 122.481,75.8946 122.815,74.8946 121.5,73.5C 122.267,72.828 122.934,71.9947 123.5,71C 123.272,70.6012 122.938,70.4346 122.5,70.5C 122.5,70.1667 122.5,69.8333 122.5,69.5C 124.873,65.1238 124.873,60.7905 122.5,56.5C 122.5,55.5 122.5,54.5 122.5,53.5 Z M 34.5,98.5 C 35.5,97.1667 36.5,97.1667 37.5,98.5C 36.8333,98.5 36.5,98.8333 36.5,99.5C 35.8333,99.1667 35.1667,98.8333 34.5,98.5 Z"/></g>
<g><path style="opacity:0.012" fill="#fdfcfc" d="M 92.5,6.5 C 92.8966,5.47498 93.5632,5.30831 94.5,6C 96.7899,7.77717 98.4566,9.94384 99.5,12.5C 99.1667,12.5 98.8333,12.5 98.5,12.5C 97.8333,12.5 97.5,12.1667 97.5,11.5C 96.8333,11.5 96.5,11.1667 96.5,10.5C 95.8333,10.5 95.5,10.1667 95.5,9.5C 94.8333,9.5 94.5,9.16667 94.5,8.5C 93.8333,8.5 93.5,8.16667 93.5,7.5C 92.8333,7.5 92.5,7.16667 92.5,6.5 Z"/></g>
<g><path style="opacity:0.009" fill="#fbf6f6" d="M 74.5,4.5 C 68.7698,7.57199 64.7698,12.2387 62.5,18.5C 61.3864,19.7759 60.3864,19.7759 59.5,18.5C 60.3764,18.6309 61.0431,18.2975 61.5,17.5C 62.9145,11.0832 66.5811,6.41654 72.5,3.5C 73.1835,3.86273 73.8501,4.19607 74.5,4.5 Z"/></g>
<g><path style="opacity:0.008" fill="#fefdfd" d="M 99.5,12.5 C 100.833,13.1667 100.833,13.8333 99.5,14.5C 99.5,13.8333 99.5,13.1667 99.5,12.5 Z"/></g>
<g><path style="opacity:0.005" fill="#f4e5e5" d="M 84.5,33.5 C 87.4718,31.3589 89.9718,28.6922 92,25.5C 92.8456,14.9947 88.0123,10.4947 77.5,12C 74.601,14.0843 71.9343,16.2509 69.5,18.5C 72.0669,11.546 77.0669,8.7127 84.5,10C 95.198,14.5255 97.198,21.5255 90.5,31C 88.5932,32.122 86.5932,32.9553 84.5,33.5 Z"/></g>
<g><path style="opacity:0.008" fill="#fdfdfc" d="M 100.5,16.5 C 101.833,17.1667 101.833,17.1667 100.5,16.5 Z"/></g>
<g><path style="opacity:0.106" fill="#fbf1f1" d="M 59.5,18.5 C 58.5084,18.6716 57.8417,18.3382 57.5,17.5C 58.3274,16.5613 58.9941,16.8946 59.5,18.5 Z"/></g>
<g><path style="opacity:0.011" fill="#fbf4f4" d="M 46.5,17.5 C 40.1413,20.5253 35.4746,25.192 32.5,31.5C 33.4203,23.246 38.087,18.5793 46.5,17.5 Z"/></g>
<g><path style="opacity:0.004" fill="#fbf5f5" d="M 69.5,20.5 C 70.625,21.6522 70.625,22.6522 69.5,23.5C 68.1667,22.5 68.1667,21.5 69.5,20.5 Z"/></g>
<g><path style="opacity:0.011" fill="#fdfcfc" d="M 109.5,24.5 C 111.292,23.5272 112.625,24.1939 113.5,26.5C 112.833,26.5 112.5,26.8333 112.5,27.5C 111.5,27.1667 110.833,26.5 110.5,25.5C 109.833,25.5 109.5,25.1667 109.5,24.5 Z"/></g>
<g><path style="opacity:0.005" fill="#fcf7f7" d="M 72.5,28.5 C 70.9731,28.573 69.9731,27.9063 69.5,26.5C 71.1227,25.5092 72.1227,26.1759 72.5,28.5 Z"/></g>
<g><path style="opacity:0.012" fill="#f8f0f0" d="M 58.5,44.5 C 58.3893,43.8826 58.056,43.3826 57.5,43C 61.7442,39.5103 62.9109,35.3436 61,30.5C 60.6667,30.8333 60.3333,31.1667 60,31.5C 58.7635,29.8956 57.5968,28.229 56.5,26.5C 50.8789,24.4839 46.5456,25.9839 43.5,31C 42.552,31.4828 41.552,31.6495 40.5,31.5C 40.3284,30.5084 40.6618,29.8417 41.5,29.5C 41.8333,30.8333 42.1667,30.8333 42.5,29.5C 43.8333,29.1667 43.8333,28.8333 42.5,28.5C 44.4234,25.2308 47.4234,23.5641 51.5,23.5C 62.5456,25.7767 65.7123,32.11 61,42.5C 60.2917,43.3805 59.4584,44.0472 58.5,44.5 Z"/></g>
<g><path style="opacity:0.012" fill="#fcf8f8" d="M 113.5,27.5 C 113.5,27.1667 113.5,26.8333 113.5,26.5C 117.833,28.8333 121.167,32.1667 123.5,36.5C 122.833,36.5 122.5,36.8333 122.5,37.5C 121.512,36.205 120.512,34.8717 119.5,33.5C 118.833,33.5 118.5,33.1667 118.5,32.5C 117.833,32.5 117.5,32.1667 117.5,31.5C 116.833,31.5 116.5,31.1667 116.5,30.5C 115.833,30.5 115.5,30.1667 115.5,29.5C 114.833,29.5 114.5,29.1667 114.5,28.5C 113.833,28.5 113.5,28.1667 113.5,27.5 Z"/></g>
<g><path style="opacity:0.008" fill="#faf3f3" d="M 25.5,31.5 C 21.5771,36.3604 17.9104,41.3604 14.5,46.5C 14.5,45.8333 14.1667,45.5 13.5,45.5C 16.0389,40.2023 19.7056,35.2023 24.5,30.5C 25.1067,30.6236 25.44,30.9569 25.5,31.5 Z"/></g>
<g><path style="opacity:0.01" fill="#fdfafb" d="M 26.5,31.5 C 27.7082,30.218 29.0416,30.218 30.5,31.5C 30.3764,32.1067 30.0431,32.44 29.5,32.5C 28.609,31.8902 27.609,31.5569 26.5,31.5 Z"/></g>
<g><path style="opacity:0.009" fill="#f5efef" d="M 98.5,30.5 C 99.6843,31.6879 99.6843,32.8545 98.5,34C 100.058,34.21 101.391,34.71 102.5,35.5C 97.9476,35.2771 94.2809,36.9437 91.5,40.5C 91.1667,39.1667 90.8333,39.1667 90.5,40.5C 90.5,41.1667 90.1667,41.5 89.5,41.5C 88.1507,40.3559 87.8174,40.3559 88.5,41.5C 88.1583,42.3382 87.4916,42.6716 86.5,42.5C 83.8333,41.1667 81.1667,41.1667 78.5,42.5C 77.8333,42.5 77.5,42.1667 77.5,41.5C 77.5,41.1667 77.5,40.8333 77.5,40.5C 86.5097,41.1602 93.5097,37.8269 98.5,30.5 Z"/></g>
<g><path style="opacity:0.255" fill="#f7e0e0" d="M 78.5,33.5 C 77.5084,33.6716 76.8417,33.3382 76.5,32.5C 77.3274,31.5613 77.9941,31.8946 78.5,33.5 Z"/></g>
<g><path style="opacity:0.012" fill="#f9f2f2" d="M 104.5,23.5 C 102.887,24.8381 102.387,26.5048 103,28.5C 108.289,31.6229 112.789,35.6229 116.5,40.5C 118.9,42.2964 120.567,44.6298 121.5,47.5C 120.833,47.5 120.5,47.8333 120.5,48.5C 120.167,48.5 119.833,48.5 119.5,48.5C 118.833,48.5 118.5,48.1667 118.5,47.5C 119.833,47.1667 119.833,46.8333 118.5,46.5C 118.5,45.8333 118.167,45.5 117.5,45.5C 115.5,44.1667 113.833,42.5 112.5,40.5C 112.5,39.8333 112.167,39.5 111.5,39.5C 111.167,38.1667 110.833,38.1667 110.5,39.5C 107.968,38.4043 105.635,37.0709 103.5,35.5C 103.435,35.0618 103.601,34.7284 104,34.5C 105.085,35.2931 106.252,35.9598 107.5,36.5C 108.656,35.4239 108.489,34.4239 107,33.5C 105.442,34.3452 104.442,33.6785 104,31.5C 103.667,31.8333 103.333,32.1667 103,32.5C 101.89,30.9632 100.39,30.2965 98.5,30.5C 98.3284,29.5084 98.6618,28.8417 99.5,28.5C 100.077,29.7733 100.743,29.7733 101.5,28.5C 101.043,27.7025 100.376,27.3691 99.5,27.5C 99.3284,26.5084 99.6618,25.8417 100.5,25.5C 101.507,25.5476 101.84,24.5476 101.5,22.5C 102.791,22.2627 103.791,22.596 104.5,23.5 Z"/></g>
<g><path style="opacity:0.999" fill="#d14749" d="M 102.5,35.5 C 102.833,35.5 103.167,35.5 103.5,35.5C 105.635,37.0709 107.968,38.4043 110.5,39.5C 110.833,39.5 111.167,39.5 111.5,39.5C 112.167,39.5 112.5,39.8333 112.5,40.5C 113.833,42.5 115.5,44.1667 117.5,45.5C 118.167,45.5 118.5,45.8333 118.5,46.5C 118.5,46.8333 118.5,47.1667 118.5,47.5C 118.5,48.1667 118.833,48.5 119.5,48.5C 119.5,49.1667 119.833,49.5 120.5,49.5C 120.5,50.1667 120.5,50.8333 120.5,51.5C 120.5,52.1667 120.833,52.5 121.5,52.5C 121.5,53.1667 121.833,53.5 122.5,53.5C 122.5,54.5 122.5,55.5 122.5,56.5C 122.5,60.8333 122.5,65.1667 122.5,69.5C 122.5,69.8333 122.5,70.1667 122.5,70.5C 121.596,71.209 121.263,72.209 121.5,73.5C 120.596,74.209 120.263,75.209 120.5,76.5C 119.662,76.8417 119.328,77.5084 119.5,78.5C 119.5,78.8333 119.5,79.1667 119.5,79.5C 118.833,79.5 118.5,79.8333 118.5,80.5C 117.263,81.9649 116.263,83.6316 115.5,85.5C 105.66,97.7567 92.9936,105.423 77.5,108.5C 77.5,114.833 77.5,121.167 77.5,127.5C 75.8333,127.5 74.1667,127.5 72.5,127.5C 71.7803,121.862 71.447,116.196 71.5,110.5C 62.9457,112.415 54.279,112.915 45.5,112C 37.7343,111.038 31.901,107.205 28,100.5C 26.791,92.5391 30.291,88.8724 38.5,89.5C 38.8333,89.5 39.1667,89.5 39.5,89.5C 41.2646,90.4614 43.2646,90.7947 45.5,90.5C 48.3915,91.4025 51.3915,91.7359 54.5,91.5C 54.8333,91.5 55.1667,91.5 55.5,91.5C 55.8333,91.5 56.1667,91.5 56.5,91.5C 58.1638,93.6791 57.8305,95.5125 55.5,97C 48.9734,97.7336 42.4734,97.5669 36,96.5C 35.1667,96.8333 34.3333,97.1667 33.5,97.5C 33.6236,98.1067 33.9569,98.44 34.5,98.5C 35.1667,98.8333 35.8333,99.1667 36.5,99.5C 36.5,99.8333 36.5,100.167 36.5,100.5C 36.8212,102.048 37.8212,102.715 39.5,102.5C 40.5676,103.434 41.901,103.768 43.5,103.5C 46.3725,103.802 49.0392,104.469 51.5,105.5C 55.5,106.833 59.5,106.833 63.5,105.5C 65.8984,105.741 67.8984,105.074 69.5,103.5C 71.2646,102.539 73.2646,102.205 75.5,102.5C 80.0785,102.53 84.0785,101.196 87.5,98.5C 88.4916,98.6716 89.1583,98.3382 89.5,97.5C 89.8333,97.5 90.1667,97.5 90.5,97.5C 91.1667,97.5 91.5,97.1667 91.5,96.5C 91.8333,96.5 92.1667,96.5 92.5,96.5C 93.1667,96.5 93.5,96.1667 93.5,95.5C 93.8333,95.5 94.1667,95.5 94.5,95.5C 98.2377,93.303 101.571,90.6363 104.5,87.5C 117.259,75.8154 119.426,62.4821 111,47.5C 107.843,44.7556 104.177,43.089 100,42.5C 94.8383,45.9096 89.1716,48.243 83,49.5C 77.9379,49.218 73.7712,47.218 70.5,43.5C 71.1799,42.1401 71.8466,40.8068 72.5,39.5C 73.391,40.1098 74.391,40.4431 75.5,40.5C 75.8417,41.3382 76.5084,41.6716 77.5,41.5C 77.5,42.1667 77.8333,42.5 78.5,42.5C 81.1667,42.5 83.8333,42.5 86.5,42.5C 87.4916,42.6716 88.1583,42.3382 88.5,41.5C 88.8333,41.5 89.1667,41.5 89.5,41.5C 90.1667,41.5 90.5,41.1667 90.5,40.5C 90.8333,40.5 91.1667,40.5 91.5,40.5C 94.2809,36.9437 97.9476,35.2771 102.5,35.5 Z M 34.5,98.5 C 35.5,97.1667 36.5,97.1667 37.5,98.5C 36.8333,98.5 36.5,98.8333 36.5,99.5C 35.8333,99.1667 35.1667,98.8333 34.5,98.5 Z"/></g>
<g><path style="opacity:0.012" fill="#faf2f2" d="M 123.5,36.5 C 125.262,37.2623 126.262,38.5956 126.5,40.5C 125.833,40.5 125.5,40.8333 125.5,41.5C 124.512,40.205 123.512,38.8717 122.5,37.5C 123.167,37.5 123.5,37.1667 123.5,36.5 Z"/></g>
<g><path style="opacity:0.006" fill="#fcf6f6" d="M 46.5,46.5 C 45.8333,45.8333 45.1667,45.1667 44.5,44.5C 44.5,43.8333 44.1667,43.5 43.5,43.5C 43.5,42.8333 43.1667,42.5 42.5,42.5C 41.8333,41.8333 41.1667,41.1667 40.5,40.5C 41.4959,40.5858 42.3292,40.2524 43,39.5C 44.1217,41.6238 45.6217,43.4571 47.5,45C 46.944,45.3826 46.6107,45.8826 46.5,46.5 Z"/></g>
<g><path style="opacity:0.01" fill="#fcf7f7" d="M 126.5,40.5 C 127.338,40.8417 127.672,41.5084 127.5,42.5C 127.167,42.5 126.833,42.5 126.5,42.5C 125.833,42.5 125.5,42.1667 125.5,41.5C 126.167,41.5 126.5,41.1667 126.5,40.5 Z"/></g>
<g><path style="opacity:0.008" fill="#f8efef" d="M 77.5,40.5 C 76.8333,40.5 76.1667,40.5 75.5,40.5C 74.391,40.4431 73.391,40.1098 72.5,39.5C 71.8466,40.8068 71.1799,42.1401 70.5,43.5C 73.7712,47.218 77.9379,49.218 83,49.5C 89.1716,48.243 94.8383,45.9096 100,42.5C 104.177,43.089 107.843,44.7556 111,47.5C 119.426,62.4821 117.259,75.8154 104.5,87.5C 104.5,86.8333 104.167,86.5 103.5,86.5C 106.037,83.6182 108.537,80.6182 111,77.5C 114.948,70.2256 115.781,62.7256 113.5,55C 112.87,53.6898 111.87,52.8565 110.5,52.5C 109.91,51.234 109.41,49.9007 109,48.5C 108.333,49.8333 107.667,49.8333 107,48.5C 106.517,47.552 106.351,46.552 106.5,45.5C 104.064,45.683 101.897,45.0163 100,43.5C 98.907,45.3492 97.5737,47.0158 96,48.5C 95.6667,48.1667 95.3333,47.8333 95,47.5C 89.2043,51.0687 83.2043,51.7353 77,49.5C 75.9125,51.9316 75.4125,51.5983 75.5,48.5C 74.1779,48.33 73.0113,48.6634 72,49.5C 70.7432,47.2542 68.9099,45.9209 66.5,45.5C 66.427,43.9731 67.0937,42.9731 68.5,42.5C 69.8333,42.1667 69.8333,41.8333 68.5,41.5C 68.8567,39.4109 69.5233,37.4109 70.5,35.5C 72.7243,37.434 75.0576,39.1006 77.5,40.5 Z"/></g>
<g><path style="opacity:0.007" fill="#f8ecec" d="M 127.5,42.5 C 128.239,42.369 128.906,42.5357 129.5,43C 128.402,43.7697 128.402,44.603 129.5,45.5C 129.167,45.5 128.833,45.5 128.5,45.5C 127.5,45.1667 126.833,44.5 126.5,43.5C 127.167,43.5 127.5,43.1667 127.5,42.5 Z"/></g>
<g><path style="opacity:0.007" fill="#f9f1f1" d="M 13.5,45.5 C 14.1667,45.5 14.5,45.8333 14.5,46.5C 14.0075,48.8185 13.0075,50.8185 11.5,52.5C 11.1706,49.7718 11.8372,47.4385 13.5,45.5 Z"/></g>
<g><path style="opacity:0.004" fill="#fefefd" d="M 129.5,45.5 C 130.833,46.1667 130.833,46.1667 129.5,45.5 Z"/></g>
<g><path style="opacity:0.251" fill="#e1adad" d="M 57.5,45.5 C 57.3893,46.1174 57.056,46.6174 56.5,47C 52.9733,47.8075 49.6399,47.6408 46.5,46.5C 50.2343,46.6773 53.9009,46.3439 57.5,45.5 Z"/></g>
<g><path style="opacity:0.012" fill="#f8f1f1" d="M 66.5,45.5 C 66.9175,46.2216 67.5842,46.7216 68.5,47C 66.0807,49.1444 64.414,51.6444 63.5,54.5C 62.8333,54.5 62.5,54.1667 62.5,53.5C 62.1667,52.1667 61.8333,52.1667 61.5,53.5C 60.5266,53.0133 59.5266,52.5133 58.5,52C 61.8275,50.5215 64.4942,48.3548 66.5,45.5 Z"/></g>
<g><path style="opacity:0.012" fill="#faf0f0" d="M 32.5,31.5 C 32.0061,40.0132 35.3395,46.5132 42.5,51C 40.5273,51.4955 38.5273,51.6621 36.5,51.5C 36.2488,49.8297 35.5822,48.3297 34.5,47C 34.8333,46.6667 35.1667,46.3333 35.5,46C 34.552,45.5172 33.552,45.3505 32.5,45.5C 32.7062,42.5049 32.0395,39.8383 30.5,37.5C 30.5,36.8333 30.1667,36.5 29.5,36.5C 29.5,35.5 29.5,34.5 29.5,33.5C 30.1174,33.6107 30.6174,33.944 31,34.5C 31.2321,33.2625 31.7321,32.2625 32.5,31.5 Z"/></g>
<g><path style="opacity:0.004" fill="#fefefd" d="M 130.5,48.5 C 131.077,47.2267 131.743,47.2267 132.5,48.5C 132.03,49.463 131.363,49.463 130.5,48.5 Z"/></g>
<g><path style="opacity:0.125" fill="#f3e0e0" d="M 29.5,50.5 C 28.5084,50.6716 27.8417,50.3382 27.5,49.5C 28.9665,46.7417 29.6332,47.075 29.5,50.5 Z"/></g>
<g><path style="opacity:0.01" fill="#faf5f5" d="M 104.5,52.5 C 102.715,55.3165 101.382,58.3165 100.5,61.5C 100.945,58.72 100.945,56.0534 100.5,53.5C 101.74,50.4374 103.074,50.1041 104.5,52.5 Z"/></g>
<g><path style="opacity:0.004" fill="#fefefd" d="M 133.5,52.5 C 132.833,51.1667 132.833,51.1667 133.5,52.5 Z"/></g>
<g><path style="opacity:0.004" fill="#fefefd" d="M 133.5,52.5 C 134.833,53.1667 134.833,53.1667 133.5,52.5 Z"/></g>
<g><path style="opacity:0.009" fill="#faf1f1" d="M 74.5,62.5 C 74.1667,62.5 73.8333,62.5 73.5,62.5C 71.6053,61.027 69.9387,59.3603 68.5,57.5C 67.8333,57.5 67.5,57.1667 67.5,56.5C 67.1667,55.1667 66.8333,55.1667 66.5,56.5C 65.5,56.1667 64.8333,55.5 64.5,54.5C 69.6923,54.3158 73.0256,56.9825 74.5,62.5 Z"/></g>
<g><path style="opacity:0.006" fill="#fffdfd" d="M 134.5,54.5 C 135.525,54.8966 135.692,55.5632 135,56.5C 134.536,55.9056 134.369,55.2389 134.5,54.5 Z"/></g>
<g><path style="opacity:0.06" fill="#f4e7e7" d="M 54.5,58.5 C 53.7611,58.369 53.0944,58.5357 52.5,59C 53.2524,59.6708 53.5858,60.5041 53.5,61.5C 53.1667,61.5 52.8333,61.5 52.5,61.5C 51.8333,61.5 51.5,61.1667 51.5,60.5C 50.8333,60.5 50.5,60.1667 50.5,59.5C 50.1667,58.1667 49.8333,58.1667 49.5,59.5C 46.3376,58.1366 43.0043,57.3033 39.5,57C 44.7746,56.0993 49.7746,56.5993 54.5,58.5 Z"/></g>
<g><path style="opacity:0.004" fill="#fefefd" d="M 134.5,57.5 C 135.833,58.1667 135.833,58.1667 134.5,57.5 Z"/></g>
<g><path style="opacity:0.008" fill="#f7efef" d="M 29.5,36.5 C 30.1667,36.5 30.5,36.8333 30.5,37.5C 30.6495,38.552 30.4828,39.552 30,40.5C 27.9359,42.8472 25.9359,44.5139 24,45.5C 23.5172,46.448 23.3505,47.448 23.5,48.5C 22.507,54.3656 25.1737,57.5322 31.5,58C 30.5004,60.0907 31.1671,61.7574 33.5,63C 37.7961,63.3736 41.9627,64.2069 46,65.5C 46.8249,67.7008 46.3249,69.5341 44.5,71C 39.9796,71.8136 35.6463,71.647 31.5,70.5C 34.869,70.5261 38.5357,70.3594 42.5,70C 43.3567,69.3109 44.0233,68.4776 44.5,67.5C 41.7986,65.738 38.7986,64.738 35.5,64.5C 30.5792,66.0042 28.5792,64.0042 29.5,58.5C 23.789,59.6203 20.9556,57.287 21,51.5C 20.8087,54.1747 19.9754,56.1747 18.5,57.5C 17.8761,57.0831 17.5427,56.4164 17.5,55.5C 20.4051,48.4107 24.4051,42.0774 29.5,36.5 Z"/></g>
<g><path style="opacity:0.004" fill="#fefefd" d="M 135.5,59.5 C 136.833,60.1667 136.833,60.1667 135.5,59.5 Z"/></g>
<g><path style="opacity:0.008" fill="#fcf9f9" d="M 53.5,61.5 C 54.8333,62.1667 54.8333,62.8333 53.5,63.5C 52.8333,63.5 52.5,63.1667 52.5,62.5C 53.1667,62.5 53.5,62.1667 53.5,61.5 Z"/></g>
<g><path style="opacity:0.011" fill="#f6f3f3" d="M 54.5,58.5 C 59.7468,58.7871 63.7468,61.1204 66.5,65.5C 63.7133,65.2204 61.5466,63.887 60,61.5C 59.6667,62.1667 59.3333,62.8333 59,63.5C 58.2572,61.068 56.7572,59.4013 54.5,58.5 Z"/></g>
<g><path style="opacity:0.01" fill="#fcf7f7" d="M 100.5,61.5 C 99.1825,68.1436 95.8491,73.4769 90.5,77.5C 90.5,76.8333 90.1667,76.5 89.5,76.5C 93.5847,71.7572 97.2514,66.7572 100.5,61.5 Z"/></g>
<g><path style="opacity:0.251" fill="#f8eaea" d="M 122.5,56.5 C 124.873,60.7905 124.873,65.1238 122.5,69.5C 122.5,65.1667 122.5,60.8333 122.5,56.5 Z"/></g>
<g><path style="opacity:0.055" fill="#f9e9ea" d="M 19.5,60.5 C 20.4884,61.795 21.4884,63.1283 22.5,64.5C 21.8333,64.5 21.5,64.8333 21.5,65.5C 20.0687,64.2196 19.4021,62.5529 19.5,60.5 Z"/></g>
<g><path style="opacity:0.741" fill="#e8a9a8" d="M 134.5,61.5 C 135.239,61.369 135.906,61.5357 136.5,62C 135.748,62.6708 135.414,63.5041 135.5,64.5C 134.596,63.791 134.263,62.791 134.5,61.5 Z"/></g>
<g><path style="opacity:0.007" fill="#fefdfd" d="M 22.5,65.5 C 22.5,65.1667 22.5,64.8333 22.5,64.5C 23.8333,64.5 24.5,65.1667 24.5,66.5C 24.1667,66.5 23.8333,66.5 23.5,66.5C 22.8333,66.5 22.5,66.1667 22.5,65.5 Z"/></g>
<g><path style="opacity:0.29" fill="#edb6b6" d="M 73.5,63.5 C 73.8333,63.5 74.1667,63.5 74.5,63.5C 75.2341,64.7079 75.5674,66.0413 75.5,67.5C 74.3263,66.4863 73.6596,65.153 73.5,63.5 Z"/></g>
<g><path style="opacity:0.01" fill="#f6f0f0" d="M 53.5,64.5 C 55.7233,71.0694 53.7233,76.0694 47.5,79.5C 39.9248,79.8644 32.2581,79.1977 24.5,77.5C 23.5581,77.6082 22.7247,77.9415 22,78.5C 21.6667,77.5 21.3333,76.5 21,75.5C 20.6667,75.8333 20.3333,76.1667 20,76.5C 17.9565,74.792 16.2899,72.792 15,70.5C 14.6175,75.1321 14.4508,79.4654 14.5,83.5C 13.1302,77.9281 13.2969,72.2614 15,66.5C 20.3462,75.4154 28.3462,79.4154 39,78.5C 48.2866,78.3794 53.1199,73.7127 53.5,64.5 Z"/></g>
<g><path style="opacity:0.067" fill="#f7ebeb" d="M 24.5,67.5 C 24.5,67.1667 24.5,66.8333 24.5,66.5C 26.231,68.23 28.231,69.5633 30.5,70.5C 28.1016,70.7406 26.1016,70.0739 24.5,68.5C 25.8333,68.1667 25.8333,67.8333 24.5,67.5 Z"/></g>
<g><path style="opacity:0.047" fill="#fbf1f1" d="M 122.5,70.5 C 122.938,70.4346 123.272,70.6012 123.5,71C 122.934,71.9947 122.267,72.828 121.5,73.5C 121.263,72.209 121.596,71.209 122.5,70.5 Z"/></g>
<g><path style="opacity:0.078" fill="#f7e4e4" d="M 121.5,73.5 C 122.815,74.8946 122.481,75.8946 120.5,76.5C 120.263,75.209 120.596,74.209 121.5,73.5 Z"/></g>
<g><path style="opacity:0.005" fill="#f7e3e3" d="M 66.5,65.5 C 68.1361,66.7489 69.3028,68.4156 70,70.5C 71.5664,76.0219 71.7331,81.5219 70.5,87C 68.6476,87.7726 67.3143,87.2726 66.5,85.5C 66.5,85.1667 66.5,84.8333 66.5,84.5C 67.4959,84.4142 68.3292,84.7476 69,85.5C 69.9075,80.3113 69.4075,75.3113 67.5,70.5C 65.31,69.2524 64.9766,67.5857 66.5,65.5 Z"/></g>
<g><path style="opacity:0.008" fill="#f6e1e0" d="M 89.5,76.5 C 90.1667,76.5 90.5,76.8333 90.5,77.5C 89.0359,79.6297 87.0359,80.963 84.5,81.5C 84.3284,80.5084 84.6618,79.8417 85.5,79.5C 86.4363,78.0256 87.7697,77.0256 89.5,76.5 Z"/></g>
<g><path style="opacity:0.039" fill="#f6e7e7" d="M 120.5,76.5 C 122.031,77.9245 121.698,78.5912 119.5,78.5C 119.328,77.5084 119.662,76.8417 120.5,76.5 Z"/></g>
<g><path style="opacity:0.011" fill="#f8eeee" d="M 109.5,58.5 C 108.864,61.1062 108.864,63.6062 109.5,66C 107.096,66.5079 106.429,67.6745 107.5,69.5C 105.238,70.3449 104.571,71.6783 105.5,73.5C 99.7462,81.4729 93.9129,87.1395 88,90.5C 86.1598,89.1669 85.6598,89.3335 86.5,91C 83.5219,91.696 80.5219,92.196 77.5,92.5C 82.0159,89.922 86.6826,87.422 91.5,85C 95.3981,81.2712 99.0648,77.4379 102.5,73.5C 105.141,68.5558 107.475,63.5558 109.5,58.5 Z"/></g>
<g><path style="opacity:0.004" fill="#f9eff0" d="M 84.5,81.5 C 84.1583,82.3382 83.4916,82.6716 82.5,82.5C 82.4088,80.3023 83.0755,79.9689 84.5,81.5 Z"/></g>
<g><path style="opacity:0.007" fill="#faf6f6" d="M 119.5,79.5 C 120.001,81.1285 120.001,82.6285 119.5,84C 118.437,85.1882 117.103,85.6882 115.5,85.5C 116.263,83.6316 117.263,81.9649 118.5,80.5C 118.5,79.8333 118.833,79.5 119.5,79.5 Z"/></g>
<g><path style="opacity:0.941" fill="#de8683" d="M 57.5,82.5 C 60.2282,82.1706 62.5615,82.8372 64.5,84.5C 62.4727,84.6621 60.4727,84.4955 58.5,84C 57.944,83.6174 57.6107,83.1174 57.5,82.5 Z"/></g>
<g><path style="opacity:0.008" fill="#fcf6f6" d="M 103.5,86.5 C 104.167,86.5 104.5,86.8333 104.5,87.5C 101.571,90.6363 98.2377,93.303 94.5,95.5C 96.456,91.5439 99.456,88.5439 103.5,86.5 Z"/></g>
<g><path style="opacity:0.047" fill="#f3e4e4" d="M 136.5,85.5 C 138.031,86.9245 137.698,87.5912 135.5,87.5C 135.328,86.5084 135.662,85.8417 136.5,85.5 Z"/></g>
<g><path style="opacity:0.09" fill="#f8ecec" d="M 46.5,82.5 C 45.3146,83.8566 44.3146,85.3566 43.5,87C 43.6387,88.301 44.3054,89.1344 45.5,89.5C 45.5,89.8333 45.5,90.1667 45.5,90.5C 43.2646,90.7947 41.2646,90.4614 39.5,89.5C 39.9046,88.4502 40.5712,88.4502 41.5,89.5C 42.1667,87.1667 42.8333,84.8333 43.5,82.5C 44.5272,81.2086 45.5272,81.2086 46.5,82.5 Z"/></g>
<g><path style="opacity:0.043" fill="#f4e6e6" d="M 135.5,90.5 C 137.031,91.9245 136.698,92.5912 134.5,92.5C 134.328,91.5084 134.662,90.8417 135.5,90.5 Z"/></g>
<g><path style="opacity:0.063" fill="#f3e2e2" d="M 134.5,93.5 C 135.133,93.8795 135.8,94.2129 136.5,94.5C 135.675,95.3857 134.675,95.719 133.5,95.5C 133.328,94.5084 133.662,93.8417 134.5,93.5 Z"/></g>
<g><path style="opacity:0.035" fill="#fcf5f5" d="M 16.5,94.5 C 17.8897,95.8993 18.8897,97.5659 19.5,99.5C 19.1667,99.5 18.8333,99.5 18.5,99.5C 17.0687,98.2196 16.4021,96.5529 16.5,94.5 Z"/></g>
<g><path style="opacity:0.008" fill="#fbf5f5" d="M 133.5,97.5 C 135.031,98.9245 134.698,99.5912 132.5,99.5C 132.328,98.5084 132.662,97.8417 133.5,97.5 Z"/></g>
<g><path style="opacity:0.008" fill="#fbf8f8" d="M 19.5,99.5 C 21.9327,100.548 21.9327,101.214 19.5,101.5C 18.8333,101.5 18.5,101.167 18.5,100.5C 19.1667,100.5 19.5,100.167 19.5,99.5 Z"/></g>
<g><path style="opacity:0.009" fill="#f9efef" d="M 121.5,47.5 C 122.885,48.5736 124.051,49.9069 125,51.5C 128.252,59.5097 130.085,67.8431 130.5,76.5C 129.144,99.5834 118.478,116.583 98.5,127.5C 97.8333,127.5 97.5,127.167 97.5,126.5C 98.254,124.495 99.4207,123.828 101,124.5C 106.268,120.608 111.101,116.274 115.5,111.5C 116.95,110.15 117.617,108.484 117.5,106.5C 115.193,106.986 113.027,106.986 111,106.5C 110.179,103.446 110.345,100.446 111.5,97.5C 112.183,97.8627 112.85,98.1961 113.5,98.5C 110.302,103.64 111.636,105.307 117.5,103.5C 117.735,104.097 118.235,104.43 119,104.5C 120.478,103.022 121.978,101.522 123.5,100C 129.521,85.7939 130.021,70.9606 125,55.5C 124.583,54.244 123.75,53.5774 122.5,53.5C 121.833,53.5 121.5,53.1667 121.5,52.5C 120.833,52.5 120.5,52.1667 120.5,51.5C 122.933,51.2144 122.933,50.5477 120.5,49.5C 120.5,49.1667 120.5,48.8333 120.5,48.5C 121.167,48.5 121.5,48.1667 121.5,47.5 Z"/></g>
<g><path style="opacity:0.998" fill="#d14b4c" d="M 113.5,98.5 C 114.167,98.5 114.833,98.5 115.5,98.5C 115.5,99.1667 115.833,99.5 116.5,99.5C 116.5,100.167 116.833,100.5 117.5,100.5C 117.5,101.5 117.5,102.5 117.5,103.5C 111.636,105.307 110.302,103.64 113.5,98.5 Z"/></g>
<g><path style="opacity:0.01" fill="#fdfcfc" d="M 116.5,99.5 C 116.5,99.1667 116.5,98.8333 116.5,98.5C 118.424,98.7107 118.757,99.3774 117.5,100.5C 116.833,100.5 116.5,100.167 116.5,99.5 Z"/></g>
<g><path style="opacity:0.055" fill="#f1e1e1" d="M 132.5,99.5 C 134.031,100.925 133.698,101.591 131.5,101.5C 131.328,100.508 131.662,99.8417 132.5,99.5 Z"/></g>
<g><path style="opacity:0.008" fill="#fefefd" d="M 132.5,102.5 C 133.833,103.167 133.833,103.167 132.5,102.5 Z"/></g>
<g><path style="opacity:0.005" fill="#faf1f1" d="M 20.5,104.5 C 23.8333,104.5 25.5,106.167 25.5,109.5C 25.1667,109.5 24.8333,109.5 24.5,109.5C 23.5,109.167 22.8333,108.5 22.5,107.5C 21.5987,106.71 20.9321,105.71 20.5,104.5 Z"/></g>
<g><path style="opacity:0.006" fill="#f9eeee" d="M 130.5,103.5 C 130.539,104.583 130.873,105.583 131.5,106.5C 130.675,107.386 129.675,107.719 128.5,107.5C 128.66,105.847 129.326,104.514 130.5,103.5 Z"/></g>
<g><path style="opacity:0.011" fill="#f8f0f0" d="M 11.5,52.5 C 0.293795,89.717 11.9605,117.217 46.5,135C 80.8943,146.258 108.228,137.091 128.5,107.5C 128.414,108.496 128.748,109.329 129.5,110C 127.022,113.819 124.522,117.652 122,121.5C 118.975,124.679 115.809,127.512 112.5,130C 110.564,130.813 108.564,131.313 106.5,131.5C 106.62,134.205 105.62,134.872 103.5,133.5C 100.463,136.511 96.7963,138.178 92.5,138.5C 91.8076,139.025 91.3076,139.692 91,140.5C 90.4387,139.978 89.772,139.645 89,139.5C 69.8393,144.303 52.5059,141.636 37,131.5C 36.6667,132.167 36.3333,132.833 36,133.5C 35.0766,132.241 34.2432,130.908 33.5,129.5C 32.914,129.709 32.414,130.043 32,130.5C 28.7121,127.068 25.2121,123.735 21.5,120.5C 21.7093,119.914 22.0426,119.414 22.5,119C 20.9194,118.293 19.4194,117.46 18,116.5C 5.29676,97.1967 2.63009,76.1967 10,53.5C 10.3826,52.944 10.8826,52.6107 11.5,52.5 Z"/></g>
<g><path style="opacity:0.011" fill="#fcf7f7" d="M 26.5,110.5 C 29.1246,112.946 31.958,115.279 35,117.5C 35.4643,118.094 35.631,118.761 35.5,119.5C 35.1667,119.5 34.8333,119.5 34.5,119.5C 34.1667,118.167 33.8333,118.167 33.5,119.5C 30.5,117.167 27.8333,114.5 25.5,111.5C 26.1667,111.5 26.5,111.167 26.5,110.5 Z"/></g>
<g><path style="opacity:0.998" fill="#d24e4f" d="M 101.5,115.5 C 101.167,115.5 100.833,115.5 100.5,115.5C 97.7535,118.367 95.4202,118.033 93.5,114.5C 94.1925,113.482 94.8592,112.482 95.5,111.5C 96.1667,111.5 96.8333,111.5 97.5,111.5C 97.7828,112.289 98.2828,112.956 99,113.5C 98.7967,109.363 100.63,107.863 104.5,109C 106.264,112.448 105.264,114.615 101.5,115.5 Z"/></g>
<g><path style="opacity:0.012" fill="#faf2f2" d="M 95.5,111.5 C 94.8592,112.482 94.1925,113.482 93.5,114.5C 95.4202,118.033 97.7535,118.367 100.5,115.5C 100.5,116.167 100.833,116.5 101.5,116.5C 101.539,117.756 101.039,118.756 100,119.5C 98,119.5 96,119.5 94,119.5C 93.3333,118.167 92.6667,116.833 92,115.5C 91.714,117.999 91.8807,120.165 92.5,122C 91.5838,122.374 90.7504,122.874 90,123.5C 87.8701,123.413 85.7034,123.413 83.5,123.5C 82.5,123.167 81.8333,122.5 81.5,121.5C 81.6213,118.998 81.7879,116.332 82,113.5C 83.1455,112.316 84.3121,112.316 85.5,113.5C 82.38,116.929 82.88,119.595 87,121.5C 90.4323,120.107 91.2656,117.774 89.5,114.5C 89.5,113.833 89.1667,113.5 88.5,113.5C 89.7927,112.355 90.9593,112.689 92,114.5C 92.3095,113.234 92.8095,112.067 93.5,111C 94.4368,110.308 95.1034,110.475 95.5,111.5 Z"/></g>
<g><path style="opacity:0.997" fill="#d04749" d="M 85.5,113.5 C 86.5,113.5 87.5,113.5 88.5,113.5C 89.1667,113.5 89.5,113.833 89.5,114.5C 91.2656,117.774 90.4323,120.107 87,121.5C 82.88,119.595 82.38,116.929 85.5,113.5 Z"/></g>
<g><path style="opacity:0.007" fill="#faf4f4" d="M 101.5,116.5 C 101.5,116.167 101.5,115.833 101.5,115.5C 105.264,114.615 106.264,112.448 104.5,109C 100.63,107.863 98.7967,109.363 99,113.5C 98.2828,112.956 97.7828,112.289 97.5,111.5C 97.33,110.178 97.6634,109.011 98.5,108C 107.099,105.596 109.599,108.429 106,116.5C 104.701,116.034 103.201,116.034 101.5,116.5 Z"/></g>
<g><path style="opacity:0.011" fill="#f6ecec" d="M 115.5,85.5 C 115.918,86.2216 116.584,86.7216 117.5,87C 111.312,94.1793 104.146,100.346 96,105.5C 94.8869,104.289 93.7202,104.289 92.5,105.5C 88.6202,108.725 83.9535,110.059 78.5,109.5C 78.5,115.833 78.5,122.167 78.5,128.5C 74.3655,130.584 71.5322,129.584 70,125.5C 65.5489,126.649 60.8823,127.315 56,127.5C 55.1667,126.667 54.3333,125.833 53.5,125C 54.2638,122.931 54.7638,120.764 55,118.5C 56.2988,118.034 57.7988,118.034 59.5,118.5C 61.7923,117.203 64.459,117.203 67.5,118.5C 67.5,118.833 67.5,119.167 67.5,119.5C 64.3198,119.176 63.1531,120.51 64,123.5C 66.5821,124.961 68.4154,124.294 69.5,121.5C 70.8333,121.167 70.8333,120.833 69.5,120.5C 69.5,120.167 69.5,119.833 69.5,119.5C 69.4919,116.977 69.6586,114.311 70,111.5C 58.0695,115.719 46.4029,115.052 35,109.5C 32.1225,109.869 29.9558,108.535 28.5,105.5C 27.7326,104.828 27.0659,103.995 26.5,103C 26.03,98.9075 26.53,94.7408 28,90.5C 31.4472,88.3781 34.9472,88.0448 38.5,89.5C 30.291,88.8724 26.791,92.5391 28,100.5C 31.901,107.205 37.7343,111.038 45.5,112C 54.279,112.915 62.9457,112.415 71.5,110.5C 71.447,116.196 71.7803,121.862 72.5,127.5C 74.1667,127.5 75.8333,127.5 77.5,127.5C 77.5,121.167 77.5,114.833 77.5,108.5C 92.9936,105.423 105.66,97.7567 115.5,85.5 Z M 34.5,98.5 C 35.5,97.1667 36.5,97.1667 37.5,98.5C 36.8333,98.5 36.5,98.8333 36.5,99.5C 35.8333,99.1667 35.1667,98.8333 34.5,98.5 Z"/></g>
<g><path style="opacity:0.004" fill="#fefefd" d="M 67.5,118.5 C 68.6226,117.243 69.2893,117.576 69.5,119.5C 69.1667,119.5 68.8333,119.5 68.5,119.5C 68.5,118.833 68.1667,118.5 67.5,118.5 Z"/></g>
<g><path style="opacity:0.167" fill="#efd4d4" d="M 63.5,105.5 C 59.5,106.833 55.5,106.833 51.5,105.5C 55.2889,105.324 59.2889,105.324 63.5,105.5 Z"/></g>
<g><path style="opacity:0.882" fill="#edafad" d="M 69.5,103.5 C 67.8984,105.074 65.8984,105.741 63.5,105.5C 65.1016,103.926 67.1016,103.259 69.5,103.5 Z"/></g>
<g><path style="opacity:0.271" fill="#f1d2d2" d="M 40.5,101.5 C 41.7095,101.932 42.7095,102.599 43.5,103.5C 41.901,103.768 40.5676,103.434 39.5,102.5C 40.1667,102.5 40.5,102.167 40.5,101.5 Z"/></g>
<g><path style="opacity:0.886" fill="#ecaca9" d="M 36.5,100.5 C 37.3957,101.506 38.0623,101.506 38.5,100.5C 39.4916,100.328 40.1583,100.662 40.5,101.5C 39.8333,101.5 39.5,101.833 39.5,102.5C 37.8212,102.715 36.8212,102.048 36.5,100.5 Z"/></g>
<g><path style="opacity:0.847" fill="#e09d9c" d="M 87.5,98.5 C 84.0785,101.196 80.0785,102.53 75.5,102.5C 79.3411,100.997 83.3411,99.6641 87.5,98.5 Z"/></g>
<g><path style="opacity:0.004" fill="#fbf7f7" d="M 89.5,97.5 C 89.1583,98.3382 88.4916,98.6716 87.5,98.5C 86.4958,96.3227 87.1625,95.9893 89.5,97.5 Z"/></g>
<g><path style="opacity:0.007" fill="#fefdfd" d="M 93.5,95.5 C 93.5,96.1667 93.1667,96.5 92.5,96.5C 92.1667,95.1667 91.8333,95.1667 91.5,96.5C 91.5,97.1667 91.1667,97.5 90.5,97.5C 90.5,96.5 90.5,95.5 90.5,94.5C 91.791,94.2627 92.791,94.596 93.5,95.5 Z"/></g>
<g><path style="opacity:0.009" fill="#f3e8e8" d="M 77.5,92.5 C 77.3893,93.1174 77.056,93.6174 76.5,94C 70.6248,95.9391 65.1248,95.7724 60,93.5C 59.8348,95.4973 58.8348,97.4973 57,99.5C 50.5898,98.5223 44.0898,98.189 37.5,98.5C 36.5,97.1667 35.5,97.1667 34.5,98.5C 33.9569,98.44 33.6236,98.1067 33.5,97.5C 34.3333,97.1667 35.1667,96.8333 36,96.5C 42.4734,97.5669 48.9734,97.7336 55.5,97C 57.8305,95.5125 58.1638,93.6791 56.5,91.5C 56.1667,90.1667 55.8333,90.1667 55.5,91.5C 55.1667,91.5 54.8333,91.5 54.5,91.5C 52.1667,90.8333 49.8333,90.1667 47.5,89.5C 51.0779,88.4113 54.7446,88.2446 58.5,89C 61.7099,91.104 65.0432,92.9373 68.5,94.5C 71.4788,93.6716 74.4788,93.0049 77.5,92.5 Z"/></g>
<g><path style="opacity:0.616" fill="#d68788" d="M 45.5,90.5 C 45.5,90.1667 45.5,89.8333 45.5,89.5C 46.1667,89.5 46.8333,89.5 47.5,89.5C 49.8333,90.1667 52.1667,90.8333 54.5,91.5C 51.3915,91.7359 48.3915,91.4025 45.5,90.5 Z"/></g>
<g><path style="opacity:0.008" fill="#fdf9f9" d="M 35.5,119.5 C 37.4044,119.738 38.7377,120.738 39.5,122.5C 38.8333,122.5 38.5,122.833 38.5,123.5C 37.1667,122.833 36.1667,121.833 35.5,120.5C 35.5,120.167 35.5,119.833 35.5,119.5 Z"/></g>
<g><path style="opacity:0.998" fill="#d35252" d="M 60.5,119.5 C 60.5,120.167 60.8333,120.5 61.5,120.5C 61.5,121.833 61.5,123.167 61.5,124.5C 57.0923,125.924 55.4256,124.424 56.5,120C 57.7932,119.51 59.1266,119.343 60.5,119.5 Z"/></g>
<g><path style="opacity:0.998" fill="#d34e4e" d="M 67.5,119.5 C 67.8333,119.5 68.1667,119.5 68.5,119.5C 68.5,120.167 68.8333,120.5 69.5,120.5C 69.5,120.833 69.5,121.167 69.5,121.5C 68.4154,124.294 66.5821,124.961 64,123.5C 63.1531,120.51 64.3198,119.176 67.5,119.5 Z"/></g>
<g><path style="opacity:0.006" fill="#fdfafa" d="M 39.5,122.5 C 40.4916,122.328 41.1583,122.662 41.5,123.5C 40.8333,123.5 40.5,123.833 40.5,124.5C 39.8333,124.5 39.5,124.167 39.5,123.5C 39.5,123.167 39.5,122.833 39.5,122.5 Z"/></g>
<g><path style="opacity:0.009" fill="#fbf4f4" d="M 41.5,123.5 C 42.7095,123.932 43.7095,124.599 44.5,125.5C 43.8333,125.5 43.5,125.833 43.5,126.5C 42.2905,126.068 41.2905,125.401 40.5,124.5C 41.1667,124.5 41.5,124.167 41.5,123.5 Z"/></g>
<g><path style="opacity:0.004" fill="#f7ecec" d="M 90.5,130.5 C 90.1583,131.338 89.4916,131.672 88.5,131.5C 88.4088,129.302 89.0755,128.969 90.5,130.5 Z"/></g>
<g><path style="opacity:0.796" fill="#e9bdbc" d="M 95.5,128.5 C 94.713,130.104 93.3797,130.771 91.5,130.5C 91.369,129.761 91.5357,129.094 92,128.5C 93.1174,128.264 94.284,128.264 95.5,128.5 Z"/></g>
<g><path style="opacity:0.714" fill="#cb7a7b" d="M 87.5,131.5 C 84.8511,133.109 81.8511,133.943 78.5,134C 74.6425,134.81 70.9758,134.643 67.5,133.5C 72.0302,133.597 76.5302,133.264 81,132.5C 82.6581,132.325 83.9914,131.658 85,130.5C 85.6708,131.252 86.5041,131.586 87.5,131.5 Z"/></g>
<g><path style="opacity:0.009" fill="#fefffe" d="M 0.5,142.5 C 1.5,141.167 2.5,141.167 3.5,142.5C 2.5,142.5 1.5,142.5 0.5,142.5 Z"/></g>
<g><path style="opacity:0.004" fill="#fefffe" d="M 5.5,142.5 C 6.16667,141.167 6.83333,141.167 7.5,142.5C 6.83333,142.5 6.16667,142.5 5.5,142.5 Z"/></g>
<g><path style="opacity:0.012" fill="#fefffe" d="M 88.5,142.5 C 87.8333,141.167 87.8333,141.167 88.5,142.5 Z"/></g>
<g><path style="opacity:0.024" fill="#fdfefd" d="M 90.5,142.5 C 89.8333,141.167 89.8333,141.167 90.5,142.5 Z"/></g>
<g><path style="opacity:0.008" fill="#fefffe" d="M 92.5,142.5 C 91.8333,141.167 91.8333,141.167 92.5,142.5 Z"/></g>
<g><path style="opacity:0.012" fill="#fefffe" d="M 99.5,142.5 C 98.8333,141.167 98.8333,141.167 99.5,142.5 Z"/></g>
<g><path style="opacity:0.008" fill="#fefffe" d="M 103.5,142.5 C 102.833,141.167 102.833,141.167 103.5,142.5 Z"/></g>
<g><path style="opacity:0.012" fill="#fefffe" d="M 136.5,142.5 C 135.833,141.167 135.833,141.167 136.5,142.5 Z"/></g>
<g><path style="opacity:0.008" fill="#fefffe" d="M 137.5,142.5 C 138.167,141.167 138.833,141.167 139.5,142.5C 138.833,142.5 138.167,142.5 137.5,142.5 Z"/></g>
<g><path style="opacity:0.012" fill="#fefffe" d="M 141.5,142.5 C 140.833,141.167 140.833,141.167 141.5,142.5 Z"/></g>
</svg>
